<?xml version="1.0" encoding="UTF-8"?>
<svg version="1.1" xmlns="http://www.w3.org/2000/svg" width="500" height="172">
<path d="M0 0 C165 0 330 0 500 0 C500 56.76 500 113.52 500 172 C335 172 170 172 0 172 C0 115.24 0 58.48 0 0 Z " fill="#AFC2FF" transform="translate(0,0)"/>
<path d="M0 0 C6.6 0 13.2 0 20 0 C20.33 19.8 20.66 39.6 21 60 C27.6 53.4 34.2 46.8 41 40 C47.49671998 38.38550696 49.70783685 37.84610908 55.75 38.75 C57.54630859 38.88535156 57.54630859 38.88535156 59.37890625 39.0234375 C62.2760025 39.2552052 65.12561087 39.57786874 68 40 C62.75541414 46.36590304 56.97902678 52.13570612 51.125 57.9375 C50.14039081 58.91708237 49.156014 59.89689837 48.171875 60.87695312 C45.78351797 63.25360252 43.39284788 65.62787356 41 68 C43.37842624 72.4691521 46.39892267 75.64621426 49.98046875 79.140625 C50.55332108 79.70827576 51.1261734 80.27592651 51.71638489 80.86077881 C53.53537173 82.66203722 55.36094515 84.45641893 57.1875 86.25 C59.02384367 88.05875653 60.85871296 89.86894931 62.69075012 91.68206787 C63.82872637 92.80774901 64.96936419 93.9307468 66.11283875 95.05084229 C67.427308 96.34850704 68.71653689 97.67166055 70 99 C70 99.33 70 99.66 70 100 C50.19128297 103.57614201 50.19128297 103.57614201 42.23797607 98.98223877 C33.96853912 93.04593411 27.39808119 84.81852806 21 77 C20.67 84.59 20.34 92.18 20 100 C13.4 100 6.8 100 0 100 C0 67 0 34 0 0 Z " fill="#FEFEFF" transform="translate(203,35)"/>
<path d="M0 0 C7.62596956 5.30298191 11.76458246 11.05832985 14 20 C14 23.63 14 27.26 14 31 C-0.52 31 -15.04 31 -30 31 C-27.39518958 38.11468414 -27.39518958 38.11468414 -22 42 C-17.17685046 42.72724588 -12.24416963 43.20933553 -7.83984375 40.8359375 C-6.22203534 39.56302451 -4.61065623 38.28195088 -3 37 C1.13881744 37.27777298 4.24733326 39.04367064 7.8125 41.0625 C8.78832031 41.61035156 9.76414063 42.15820312 10.76953125 42.72265625 C11.50558594 43.14417969 12.24164063 43.56570312 13 44 C8.65770562 51.59901517 2.18810447 56.11900028 -6 59 C-17.50525622 61.26280662 -27.42818801 60.78538518 -37.44140625 54.45703125 C-44.13054838 49.64128971 -48.42655355 43.84341722 -51 36 C-51.99165102 26.28182002 -51.65306148 18.29882572 -46 10 C-45.4225 9.0925 -44.845 8.185 -44.25 7.25 C-32.31815598 -4.68184402 -15.20864622 -8.32965854 0 0 Z " fill="#FDFDFF" transform="translate(124,77)"/>
<path d="M0 0 C7.87075246 2.75295814 12.70979062 5.73727233 16.6472168 13.09838867 C18.03804143 17.55139516 17.83900072 21.82386966 17.7890625 26.4609375 C17.7862326 27.45268478 17.78340271 28.44443207 17.78048706 29.4662323 C17.76931804 32.62474784 17.74421927 35.78297682 17.71875 38.94140625 C17.70871597 41.08658444 17.69959086 43.23176708 17.69140625 45.37695312 C17.67109349 50.62780262 17.63193816 55.87803474 17.59375 61.12890625 C10.66375 61.12890625 3.73375 61.12890625 -3.40625 61.12890625 C-3.44363281 58.44378906 -3.48101562 55.75867188 -3.51953125 52.9921875 C-3.5657774 50.38411434 -3.61699977 47.77618294 -3.66870117 45.16821289 C-3.70190114 43.35938167 -3.72994841 41.55044807 -3.75268555 39.74145508 C-3.78632258 37.13708992 -3.83864195 34.53365865 -3.89453125 31.9296875 C-3.90092117 31.12429031 -3.9073111 30.31889313 -3.91389465 29.48908997 C-4.03316048 24.90738283 -4.45473405 21.85754164 -7.40625 18.12890625 C-11.12078232 16.27164009 -15.36204425 16.54389536 -19.40625 17.12890625 C-22.23049288 19.31913543 -23.82133603 20.95907832 -25.40625 24.12890625 C-25.56316907 26.89821993 -25.66468134 29.64624732 -25.72265625 32.41796875 C-25.74343735 33.23639252 -25.76421844 34.05481628 -25.78562927 34.89804077 C-25.85109812 37.51657591 -25.90999726 40.13521264 -25.96875 42.75390625 C-26.01193776 44.52735432 -26.05555214 46.30079206 -26.09960938 48.07421875 C-26.20758099 52.42567857 -26.30667378 56.77721372 -26.40625 61.12890625 C-33.33625 61.12890625 -40.26625 61.12890625 -47.40625 61.12890625 C-47.40625 41.32890625 -47.40625 21.52890625 -47.40625 1.12890625 C-40.47625 1.12890625 -33.54625 1.12890625 -26.40625 1.12890625 C-26.07625 2.77890625 -25.74625 4.42890625 -25.40625 6.12890625 C-24.77976562 5.70738281 -24.15328125 5.28585938 -23.5078125 4.8515625 C-22.69054687 4.30371094 -21.87328125 3.75585938 -21.03125 3.19140625 C-20.21914063 2.64613281 -19.40703125 2.10085937 -18.5703125 1.5390625 C-12.78534553 -2.23056399 -6.55217193 -1.67561278 0 0 Z " fill="#FDFEFF" transform="translate(380.40625,73.87109375)"/>
<path d="M0 0 C6.93 0 13.86 0 21 0 C21 33.33 21 66.66 21 101 C14.07 101 7.14 101 0 101 C0 67.67 0 34.34 0 0 Z " fill="#FDFDFF" transform="translate(158,34)"/>
<path d="M0 0 C6.93 0 13.86 0 21 0 C21 19.8 21 39.6 21 60 C14.07 60 7.14 60 0 60 C0 40.2 0 20.4 0 0 Z " fill="#FEFEFF" transform="translate(288,75)"/>
<path d="M0 0 C3.22676998 2.70148184 5.38946413 4.60583547 6.15625 8.8359375 C6.25103591 17.29558011 6.25103591 17.29558011 3.4375 20.8125 C-0.79316947 24.56241157 -3.37453019 25.78564314 -9.21484375 25.6328125 C-12.99964452 24.94210398 -15.6313768 22.9311232 -18.3125 20.25 C-20.94810031 16.12471256 -21.14174576 11.00769284 -20.3125 6.25 C-18.64767146 3.11932641 -16.32314827 1.01669869 -13.5 -1.125 C-8.35000258 -2.59642784 -4.65112529 -2.45719826 0 0 Z " fill="#FDFDFF" transform="translate(441.3125,111.75)"/>
<path d="M0 0 C4.10746873 1.77367968 6.69875485 4.16459142 9 8 C9.62391938 12.91336509 9.53263057 14.9727839 7.25 19.375 C4.66111425 22.39536671 2.77129709 23.69404868 -1.1484375 24.37109375 C-5.28770068 24.49454546 -8.12211901 24.39741725 -11.4375 21.75 C-14.5885381 18.36839813 -15.78147047 16.67539309 -16.375 12.125 C-15.80456791 7.37139923 -13.45137487 4.55504451 -10.25 1.125 C-6.87744148 -0.56127926 -3.65142378 -0.53204378 0 0 Z " fill="#FCFDFF" transform="translate(302,38)"/>
<path d="M0 0 C3.0625 1.6875 3.0625 1.6875 5 4 C5.33 5.65 5.66 7.3 6 9 C-1.26 9 -8.52 9 -16 9 C-15 4 -15 4 -13.0625 1.6875 C-8.69536109 -0.71888267 -4.88235152 -0.79368276 0 0 Z " fill="#B1C3FF" transform="translate(111,87)"/>
</svg>
